HIERARCHY
ROOT Hips
{
  OFFSET 3.13124 94.3669 -3.18751
  CHANNELS  6 Xposition Yposition Zposition Zrotation Xrotation Yrotation
  JOINT LeftUpLeg
  {
    OFFSET 8.64259 1.95398 -2.38835
    CHANNELS 3 Zrotation Xrotation Yrotation
    JOINT LeftLeg
    {
      OFFSET 43.7702 0 0
      CHANNELS 3 Zrotation Xrotation Yrotation
      JOINT LeftFoot
      {
        OFFSET 40.6238 0 0
        CHANNELS 3 Zrotation Xrotation Yrotation
        JOINT LeftToeBase
        {
          OFFSET 12.7242 0 0
          CHANNELS 3 Zrotation Xrotation Yrotation
          End Site
          {
            OFFSET 0 0 0
          }
        }
      }
    }
  }
  JOINT RightUpLeg
  {
    OFFSET -8.2249 1.95398 -2.59336
    CHANNELS 3 Zrotation Xrotation Yrotation
    JOINT RightLeg
    {
      OFFSET 43.5653 0 0
      CHANNELS 3 Zrotation Xrotation Yrotation
      JOINT RightFoot
      {
        OFFSET 40.6238 0 0
        CHANNELS 3 Zrotation Xrotation Yrotation
        JOINT RightToeBase
        {
          OFFSET 12.7242 0 0
          CHANNELS 3 Zrotation Xrotation Yrotation
          End Site
          {
            OFFSET 0 0 0
          }
        }
      }
    }
  }
  JOINT Spine
  {
    OFFSET 0.165834 0.87714 6.61349
    CHANNELS 3 Zrotation Xrotation Yrotation
    JOINT Spine1
    {
      OFFSET 7.38962 1.71661e-005 0
      CHANNELS 3 Zrotation Xrotation Yrotation
      JOINT Spine2
      {
        OFFSET 11.9445 1.14441e-005 0
        CHANNELS 3 Zrotation Xrotation Yrotation
        JOINT Spine3
        {
          OFFSET 14.7254 4.19617e-005 0
          CHANNELS 3 Zrotation Xrotation Yrotation
          JOINT Spine4
          {
            OFFSET 10.9679 0 0
            CHANNELS 3 Zrotation Xrotation Yrotation
            JOINT RightShoulder
            {
              OFFSET 2.46616 -1.6653 3.69651
              CHANNELS 3 Zrotation Xrotation Yrotation
              JOINT RightArm
              {
                OFFSET 13.0012 0 0
                CHANNELS 3 Zrotation Xrotation Yrotation
                JOINT RightForeArm
                {
                  OFFSET 28.7848 1.52588e-005 0
                  CHANNELS 3 Zrotation Xrotation Yrotation
                  JOINT RightHand
                  {
                    OFFSET 26.5688 1.52588e-005 0
                    CHANNELS 3 Zrotation Xrotation Yrotation
                    End Site
                    {
                      OFFSET 0 0 0
                    }
                  }
                }
              }
            }
            JOINT LeftShoulder
            {
              OFFSET 2.38034 -1.29275 -3.75231
              CHANNELS 3 Zrotation Xrotation Yrotation
              JOINT LeftArm
              {
                OFFSET 16.3182 6.10352e-005 0
                CHANNELS 3 Zrotation Xrotation Yrotation
                JOINT LeftForeArm
                {
                  OFFSET 27.0901 0 0
                  CHANNELS 3 Zrotation Xrotation Yrotation
                  JOINT LeftHand
                  {
                    OFFSET 24.5451 1.52588e-005 0
                    CHANNELS 3 Zrotation Xrotation Yrotation
                    End Site
                    {
                      OFFSET 0 0 0
                    }
                  }
                }
              }
            }
            JOINT Neck
            {
              OFFSET 5.0226 -0.0266342 0
              CHANNELS 3 Zrotation Xrotation Yrotation
              JOINT Head
              {
                OFFSET 6.69363 2.86102e-005 0
                CHANNELS 3 Zrotation Xrotation Yrotation
                End Site
                {
                  OFFSET 0 0 0
                }
              }
            }
          }
        }
      }
    }
  }
}
MOTION
Frames:	18
Frame Time:	0.0333333
34.3747 90.277 43.2127 90.5253 -50.4922 85.7094 -178.316 20.5247 80.4012 -32.9517 7.70766 5.89641 69.2411 7.8129 4.03502 28.7808 2.32591e-006 2.07808e-006 -179.597 6.72182 70.2963 -56.5686 20.3865 0.666582 23.1078 -1.52549 -0.391559 28.7808 1.08777e-005 1.81319e-005 1.81722 6.78234 -89.7256 13.359 3.24483 -1.00942 1.69165 3.19717 -1.15207 -20.8761 3.39861 0.0135501 -0.863442 3.39857 0.0135335 76.5424 -47.6227 -122.054 28.0798 10.9596 -24.5084 26.4281 38.1551 -45.328 -20.7673 -1.67307 4.44829 -90.0431 -69.0201 82.1372 -17.3782 -17.2632 0.336235 -17.8295 -28.1514 -39.9577 10.3741 2.21461 16.0468 19.2978 -3.94677 13.3552 6.85039 -8.80984 -12.4059 
35.3578 90.5257 43.8129 91.4729 -51.9568 86.7213 -177.814 18.8538 80.5241 -32.5939 6.83088 5.71294 69.5584 8.70941 4.46714 28.7808 2.32591e-006 2.07808e-006 -177.743 12.2523 70.7032 -62.4408 26.5454 1.00845 28.2147 -6.10947 -5.51466 28.7808 1.08777e-005 1.81319e-005 1.65455 6.91465 -89.6798 13.0973 2.90242 -1.12718 1.42897 2.84997 -1.25391 -21.1319 3.10687 -0.201998 -1.11924 3.10687 -0.202008 74.4458 -47.4149 -125.285 32.6336 6.40721 -22.5723 18.2278 27.9087 -42.6288 -12.3578 -1.61913 10.2175 -95.5374 -67.7336 75.1344 -19.582 -15.9019 -1.88879 -12.7824 -19.2535 -41.7223 8.47548 1.95614 17.0977 19.3187 -2.71547 14.0123 7.53173 -7.96824 -13.1468 
36.2181 90.8527 44.2913 92.2818 -52.4317 88.1476 -177.479 17.5281 80.9917 -32.4633 7.64133 6.02317 68.8698 10.1663 5.25878 28.7808 2.32591e-006 2.07808e-006 -176.425 17.336 71.742 -67.0882 23.2139 0.657888 31.8971 -2.0834 -1.09617 28.7808 1.08777e-005 1.81319e-005 1.38551 7.02672 -89.6573 12.8676 2.40809 -1.17597 1.19825 2.35402 -1.28088 -21.354 2.65009 -0.397339 -1.3414 2.65008 -0.397368 72.7891 -49.0552 -126.826 36.4719 1.69881 -19.4279 7.58012 11.6487 -45.8266 -3.18084 -0.609108 19.7019 -97.7975 -65.4011 71.7545 -22.0859 -13.952 -5.92009 -7.68229 -13.2823 -40.2014 7.72402 0.715261 4.95833 20.2329 -1.83308 12.3627 7.29464 -6.63337 -12.3319 
37.0768 91.2721 44.691 92.9508 -52.646 89.596 -177.023 16.0135 81.8235 -31.4421 7.87069 5.71237 69.1857 9.64689 4.96068 28.7808 2.32591e-006 2.07808e-006 -176.183 21.0853 73.5184 -67.6507 25.2316 0.797296 31.9083 0.656812 1.68599 28.7808 1.08777e-005 1.81319e-005 1.15863 7.10327 -89.7167 12.7078 2.0031 -1.2611 1.0377 1.94559 -1.34774 -21.5083 2.2899 -0.601904 -1.49564 2.28988 -0.601915 73.4506 -49.8636 -125.487 40.7613 -4.51034 -14.3216 2.94643 4.64542 -55.0312 4.74563 1.23819 21.4927 -99.4554 -62.8083 68.9354 -24.493 -11.9432 -13.373 -1.4263 -7.06088 -30.8632 11.7904 -0.888576 -10.863 20.205 -1.53286 10.4159 7.42993 -5.64529 -11.1242 
37.8207 91.8246 45.0439 93.3524 -52.9501 90.4462 -176.635 14.4345 82.3806 -29.7958 8.77631 5.40651 67.9931 9.92424 5.19779 28.7808 2.32591e-006 2.07808e-006 -176.321 24.2872 75.1606 -66.5132 29.3473 1.16068 34.6179 2.59107 3.43377 28.7808 1.08777e-005 1.81319e-005 0.94893 7.13446 -89.8226 12.6357 1.65774 -1.26687 0.965116 1.60037 -1.3387 -21.5766 1.96185 -0.710078 -1.56394 1.96184 -0.710094 73.864 -50.2944 -124.686 42.7199 -8.63112 -7.52481 -8.23872 -2.62736 -66.5048 23.0485 5.7711 21.8947 -100.508 -60.239 66.7918 -25.0334 -10.9773 -17.0933 -0.311457 -4.40127 -34.6081 13.1272 0.00812397 -3.65115 18.8965 -1.4015 8.76807 8.19988 -4.87973 -9.94382 
38.4639 92.4371 45.4126 93.594 -53.5671 91.2045 -176.253 12.9027 83.062 -27.8381 9.01233 4.9085 66.5882 9.75034 5.22148 28.7808 2.32591e-006 2.07808e-006 -176.64 26.9901 76.4365 -64.0433 29.7223 1.25147 36.1359 3.98316 4.62673 28.7808 1.08777e-005 1.81319e-005 0.786788 7.13978 -89.9259 12.6185 1.39235 -1.26394 0.947664 1.33534 -1.32457 -21.5911 1.70788 -0.787215 -1.57842 1.70788 -0.787233 73.989 -50.3551 -124.484 43.1735 -12.4473 -3.75765 -10.2254 -2.12294 -77.2604 33.8976 10.0011 26.4341 -100.028 -58.1351 66.7587 -25.0048 -10.6729 -20.2791 2.64654 0.259278 -34.5234 10.554 -0.463664 -7.60715 17.9399 -1.02414 7.68014 8.1392 -4.0928 -9.60308 
39.0549 93.0318 45.8144 93.4792 -54.3659 91.6925 -175.76 11.4047 83.7826 -25.4434 8.79518 4.25466 65.3293 9.68982 5.30585 28.7808 2.32591e-006 2.07808e-006 -177.072 28.6051 77.2394 -60.0852 29.7022 1.34931 34.4715 5.29189 6.07156 28.7808 1.08777e-005 1.81319e-005 0.678717 7.09573 -90.0371 12.7017 1.2075 -1.27606 1.03062 1.15016 -1.32775 -21.5064 1.53517 -0.854148 -1.49375 1.53514 -0.854174 75.1635 -49.9199 -122.986 45.3835 -17.5053 -0.527591 -2.13326 -0.0610328 -82.946 29.5937 6.78235 19.7657 -99.4513 -56.4894 67.0087 -24.1944 -10.7916 -21.0774 1.85791 -0.903347 -43.0634 6.75439 0.647888 5.00407 17.0131 -0.576048 7.11659 7.68584 -3.40594 -9.59992 
39.5447 93.454 46.2034 93.6056 -54.872 92.4937 -175.216 9.46893 84.6676 -22.481 8.69573 3.5634 65.3505 10.1782 5.59154 28.7808 2.32591e-006 2.07808e-006 -177.609 29.0441 78.0261 -56.135 34.5239 1.87311 34.0132 5.26912 6.09542 28.7808 1.08777e-005 1.81319e-005 0.611124 7.05077 -90.2683 12.7848 1.03894 -1.30616 1.11359 0.980444 -1.35056 -21.4218 1.3835 -0.93372 -1.40919 1.38348 -0.93374 75.7086 -49.4586 -122.414 44.561 -20.5039 -0.285812 4.87134 0.0777589 -89.6833 31.7639 8.74225 24.5043 -99.1214 -55.1253 67.0201 -23.3637 -11.3737 -23.5634 3.82709 1.21894 -45.0778 3.68957 0.708579 10.3847 16.3147 -0.185908 6.79355 6.6192 -2.81454 -9.67031 
39.8855 93.5795 46.5693 93.5415 -54.983 93.1563 -174.813 8.34343 85.5086 -20.9112 9.26555 3.34743 66.7474 10.1289 5.4659 28.7808 2.32591e-006 2.07808e-006 -177.963 29.348 78.5606 -53.645 35.7439 2.06246 34.1124 3.75156 4.59021 28.7808 1.08777e-005 1.81319e-005 0.564489 6.99342 -90.4984 12.8938 0.889347 -1.3547 1.22244 0.828986 -1.39292 -21.3116 1.25449 -1.02201 -1.29898 1.25447 -1.022 76.1966 -49.2494 -121.81 43.1547 -22.2302 -1.23815 9.78815 -0.736976 -94.4082 32.8008 10.1126 27.7959 -98.9641 -54.1549 66.9216 -22.272 -12.4629 -25.2414 6.45837 3.72294 -47.1959 -1.65255 0.0420301 13.1895 15.7006 0.0378269 6.67201 5.45555 -2.42775 -9.82433 
40.1371 93.4554 46.9007 93.7907 -54.7511 93.6659 -174.802 7.70072 85.7758 -20.6024 9.65078 3.5535 68.5458 10.3301 5.43584 28.7808 2.32591e-006 2.07808e-006 -178.228 29.0816 78.6556 -52.1515 35.3186 2.06696 33.7681 2.81785 3.70213 28.7808 1.08777e-005 1.81319e-005 0.458135 6.97977 -90.5704 12.9167 0.697266 -1.18961 1.24537 0.644218 -1.21913 -21.2884 1.02255 -0.925056 -1.27573 1.0225 -0.925091 75.9751 -49.8372 -121.859 41.709 -22.5424 -2.69554 14.9414 -1.75192 -96.8368 33.2915 10.3906 28.1832 -98.1468 -52.9959 67.6917 -20.9354 -14.1107 -24.6099 8.64129 5.40494 -49.559 -9.76117 -0.828689 7.07673 15.2821 0.065581 4.86717 4.69919 -1.77162 -8.73536 
40.2573 93.0584 47.1965 94.3035 -54.3259 94.1477 -175.167 7.64629 85.6544 -21.9238 9.20213 4.04285 71.2377 10.2435 5.16599 28.7808 2.32591e-006 2.07808e-006 -178.448 28.1075 78.5499 -50.7667 33.3887 1.91039 32.6692 2.20655 3.18657 28.7808 1.08777e-005 1.81319e-005 0.386332 6.99992 -90.5776 12.8748 0.543969 -1.03194 1.20355 0.498023 -1.05486 -21.3302 0.82895 -0.820757 -1.3176 0.828933 -0.82077 75.6913 -50.1816 -122.112 40.0153 -21.6332 -4.9349 19.6326 -2.6026 -97.8634 32.6884 10.7294 29.8492 -97.8179 -52.4402 67.9755 -21.716 -12.8862 -29.7473 2.3419 -0.422622 -47.7167 -0.859151 0.114624 11.4024 14.8068 -0.0153795 4.02768 4.42797 -1.56277 -8.35795 
40.2544 92.4048 47.4578 95.1519 -53.9541 94.8428 -175.833 8.20976 85.3095 -24.6565 7.64126 4.76589 74.7687 10.1177 4.82138 28.7808 2.32591e-006 2.07808e-006 -178.723 26.6908 78.8077 -49.9201 32.1272 1.81433 34.0042 1.39113 2.2922 28.7808 1.08777e-005 1.81319e-005 0.324911 7.04781 -90.5736 12.7777 0.459969 -0.888022 1.10651 0.420464 -0.907412 -21.4276 0.705561 -0.708749 -1.41496 0.705564 -0.708754 75.4997 -50.4745 -122.257 39.0493 -20.5418 -6.61718 24.1814 -2.95009 -97.5475 29.7601 9.37751 28.6208 -97.9734 -52.4744 67.7664 -21.6266 -12.8505 -30.8757 -1.14971 -3.65144 -49.6834 0.376881 0.278855 10.8317 14.3711 -0.145919 3.48217 4.33983 -1.50888 -8.08189 
40.0885 91.5367 47.6947 96.1841 -53.775 95.5562 -176.95 9.55047 84.5471 -28.7198 4.84136 5.85683 77.7128 10.3133 4.66898 28.7808 2.32591e-006 2.07808e-006 -178.837 25.2722 79.3899 -50.936 35.9109 2.15477 40.6812 2.59451 2.96984 28.7808 1.08777e-005 1.81319e-005 0.295771 7.12455 -90.4351 12.6256 0.435571 -0.733317 0.954503 0.402413 -0.751807 -21.5801 0.636555 -0.568594 -1.56749 0.636533 -0.568596 75.3267 -50.5643 -122.462 38.3062 -19.0992 -8.32639 27.7324 -2.64546 -96.3714 27.1294 8.15518 27.2014 -98.1244 -52.8115 67.6641 -21.5523 -12.9072 -30.0742 -4.39405 -5.98934 -53.1014 -1.29152 0.0224893 7.53621 14.1673 -0.273153 2.98378 4.43372 -1.49879 -7.97709 
39.7844 90.3519 47.8538 97.5813 -53.8657 96.3738 -177.879 11.2708 83.4889 -33.5151 1.35722 6.86989 80.6584 10.2267 4.3857 28.7808 2.32591e-006 2.07808e-006 -178.812 24.4424 79.7189 -52.1565 36.9148 2.20719 47.9722 1.52036 1.6213 28.7808 1.08777e-005 1.81319e-005 0.275157 7.25131 -90.0906 12.374 0.483829 -0.540027 0.703055 0.459813 -0.560517 -21.8324 0.617639 -0.366864 -1.81974 0.617634 -0.366882 74.8515 -50.7915 -123.025 37.9216 -17.3332 -9.63015 28.0719 -1.47019 -94.4926 25.1889 6.68765 23.6482 -98.4149 -53.2965 67.3998 -21.7268 -12.4966 -29.3945 -7.15916 -7.22964 -57.3525 -1.35457 0.021372 8.29628 13.9572 -0.371147 2.08328 5.37343 -1.41762 -8.04448 
39.3369 89.1597 47.9737 99.2247 -54.9303 97.6711 -178.101 12.5892 83.1411 -37.4439 -2.10321 7.29744 84.027 9.06109 3.70863 28.7808 2.32591e-006 2.07808e-006 -178.758 24.4584 80.5542 -53.3652 36.5221 2.09493 54.2933 -2.51256 -1.46048 28.7808 1.08777e-005 1.81319e-005 0.349989 7.39822 -89.7387 12.0851 0.685633 -0.575386 0.414202 0.659608 -0.605007 -22.1219 0.826946 -0.343518 -2.1093 0.826919 -0.343523 74.9376 -50.247 -123.162 37.3703 -14.6693 -11.0903 29.5317 -0.0303591 -91.8024 23.8854 6.07161 22.4567 -100.347 -54.793 65.198 -21.2381 -13.2947 -26.1091 -7.3744 -6.18905 -62.6549 -6.53946 -0.618978 10.0809 13.1046 -0.16503 2.69187 7.74596 -1.66591 -9.60105 
38.9236 88.6761 48.0662 98.9992 -57.9034 97.9681 -177.4 13.7239 83.8488 -38.5878 -4.99246 6.71865 85.817 8.55557 3.42243 28.7808 2.32591e-006 2.07808e-006 -178.958 24.9371 81.9543 -52.084 37.7008 2.21592 59.0037 -3.63809 -2.14041 28.7808 1.08777e-005 1.81319e-005 0.470051 7.48374 -89.5986 11.9201 0.961182 -0.673915 0.24933 0.930749 -0.715865 -22.2883 1.11808 -0.351097 -2.27567 1.11807 -0.35113 75.3855 -50.0206 -122.646 37.4527 -11.8219 -12.6306 29.1874 3.61095 -86.7413 26.0376 6.06506 20.2475 -101.443 -56.514 64.3143 -21.512 -12.9997 -22.3929 -6.15251 -4.91988 -65.8786 -7.28653 -0.714359 10.1367 15.2255 0.392941 2.96964 8.63295 -1.46537 -11.1127 
38.5973 89.2862 48.0246 97.4588 -61.0643 98.0386 -176.848 14.057 85.5518 -36.592 -6.58435 6.13955 84.8641 8.63241 3.51679 28.7808 2.32591e-006 2.07808e-006 -179.503 24.4379 84.2515 -47.6524 39.5418 2.51376 60.262 -3.01414 -1.73884 28.7808 1.08777e-005 1.81319e-005 0.456567 7.48438 -89.833 11.9155 0.90545 -0.724416 0.244676 0.872675 -0.763566 -22.2923 1.08129 -0.418786 -2.27964 1.0813 -0.418787 74.1304 -52.3657 -123.329 38.2829 -7.40302 -12.8979 15.7898 6.07066 -74.8542 35.6554 5.083 10.2584 -100.589 -58.2494 66.0485 -23.1829 -10.7603 -18.0856 -6.08871 -5.02348 -65.0642 -0.185786 0.0418132 4.61484 18.1442 0.923183 1.1086 9.69807 -0.723374 -12.1318 
38.2794 90.6835 47.7911 94.8255 -64.2824 97.8922 -176.292 13.7427 88.1269 -32.2465 -7.12395 5.65426 81.6758 8.64396 3.72179 28.7808 2.32591e-006 2.07808e-006 -179.964 23.9085 86.864 -42.0251 37.3493 2.45317 56.5717 -2.11537 -1.1923 28.7808 1.08777e-005 1.81319e-005 0.459622 7.4303 -90.3981 12.0179 0.751243 -0.925403 0.346785 0.709778 -0.95757 -22.1886 0.994606 -0.656852 -2.17594 0.994621 -0.656854 72.5534 -53.9853 -124.766 37.9222 -2.21344 -12.3368 3.65731 3.90356 -62.2471 35.9797 2.51231 2.46813 -100.68 -58.5999 66.0399 -25.7489 -8.56811 -15.4845 -7.47051 -8.01248 -55.1076 11.519 0.0317648 -3.61943 21.4964 0.790075 -0.691577 10.7576 -0.688087 -14.1658 
